<svg xmlns="http://www.w3.org/2000/svg" viewBox="0 0 1200 900" width="1200" height="900" font-family="'Segoe UI', Arial, sans-serif">
  <defs>
    <!-- Background gradient -->
    <linearGradient id="bgGrad" x1="0%" y1="0%" x2="100%" y2="100%">
      <stop offset="0%" style="stop-color:#0d1117"/>
      <stop offset="100%" style="stop-color:#161b22"/>
    </linearGradient>
    <!-- Header gradient -->
    <linearGradient id="headerGrad" x1="0%" y1="0%" x2="100%" y2="0%">
      <stop offset="0%" style="stop-color:#1a3a5c"/>
      <stop offset="50%" style="stop-color:#1e4976"/>
      <stop offset="100%" style="stop-color:#1a3a5c"/>
    </linearGradient>
    <!-- Skill gradients -->
    <linearGradient id="skill1" x1="0%" y1="0%" x2="100%" y2="100%">
      <stop offset="0%" style="stop-color:#1e3a5f"/>
      <stop offset="100%" style="stop-color:#0d2137"/>
    </linearGradient>
    <linearGradient id="skill2" x1="0%" y1="0%" x2="100%" y2="100%">
      <stop offset="0%" style="stop-color:#1a4a3a"/>
      <stop offset="100%" style="stop-color:#0d2a1f"/>
    </linearGradient>
    <linearGradient id="skill3" x1="0%" y1="0%" x2="100%" y2="100%">
      <stop offset="0%" style="stop-color:#3a1e5f"/>
      <stop offset="100%" style="stop-color:#1f0d37"/>
    </linearGradient>
    <linearGradient id="skill4" x1="0%" y1="0%" x2="100%" y2="100%">
      <stop offset="0%" style="stop-color:#3a2e1e"/>
      <stop offset="100%" style="stop-color:#21190d"/>
    </linearGradient>
    <linearGradient id="skill5" x1="0%" y1="0%" x2="100%" y2="100%">
      <stop offset="0%" style="stop-color:#3a1e2e"/>
      <stop offset="100%" style="stop-color:#210d19"/>
    </linearGradient>
    <linearGradient id="skill6" x1="0%" y1="0%" x2="100%" y2="100%">
      <stop offset="0%" style="stop-color:#1e3a3a"/>
      <stop offset="100%" style="stop-color:#0d2121"/>
    </linearGradient>
    <linearGradient id="skill7" x1="0%" y1="0%" x2="100%" y2="100%">
      <stop offset="0%" style="stop-color:#3a3a1e"/>
      <stop offset="100%" style="stop-color:#21210d"/>
    </linearGradient>
    <linearGradient id="skill8" x1="0%" y1="0%" x2="100%" y2="100%">
      <stop offset="0%" style="stop-color:#0d2e3a"/>
      <stop offset="100%" style="stop-color:#051820"/>
    </linearGradient>
    <!-- Arrow marker -->
    <marker id="arrow" markerWidth="8" markerHeight="8" refX="6" refY="3" orient="auto">
      <path d="M0,0 L0,6 L8,3 z" fill="#4a9eff" opacity="0.7"/>
    </marker>
    <marker id="arrowGray" markerWidth="8" markerHeight="8" refX="6" refY="3" orient="auto">
      <path d="M0,0 L0,6 L8,3 z" fill="#555"/>
    </marker>
    <!-- Glow filter -->
    <filter id="glow" x="-20%" y="-20%" width="140%" height="140%">
      <feGaussianBlur stdDeviation="3" result="coloredBlur"/>
      <feMerge>
        <feMergeNode in="coloredBlur"/>
        <feMergeNode in="SourceGraphic"/>
      </feMerge>
    </filter>
    <filter id="softGlow" x="-10%" y="-10%" width="120%" height="120%">
      <feGaussianBlur stdDeviation="6" result="coloredBlur"/>
      <feMerge>
        <feMergeNode in="coloredBlur"/>
        <feMergeNode in="SourceGraphic"/>
      </feMerge>
    </filter>
    <!-- Grid pattern -->
    <pattern id="grid" width="40" height="40" patternUnits="userSpaceOnUse">
      <path d="M 40 0 L 0 0 0 40" fill="none" stroke="#ffffff" stroke-width="0.15" opacity="0.3"/>
    </pattern>
  </defs>

  <!-- Background -->
  <rect width="1200" height="900" fill="url(#bgGrad)"/>
  <rect width="1200" height="900" fill="url(#grid)"/>

  <!-- Decorative top accent line -->
  <rect x="0" y="0" width="1200" height="3" fill="url(#headerGrad)" opacity="0.9"/>

  <!-- Header block -->
  <rect x="40" y="20" width="1120" height="90" rx="12" fill="url(#headerGrad)" opacity="0.85"/>
  <rect x="40" y="20" width="1120" height="90" rx="12" fill="none" stroke="#4a9eff" stroke-width="1" opacity="0.4"/>

  <!-- Title text -->
  <text x="600" y="57" text-anchor="middle" fill="#e8f4ff" font-size="26" font-weight="700" letter-spacing="2" filter="url(#glow)">LITERATURE SEARCH AGENT TEAM</text>
  <text x="600" y="83" text-anchor="middle" fill="#7ab8ff" font-size="13" letter-spacing="3">MULTI-AGENT · BIOMEDICAL RESEARCH · AUTOMATED SYNTHESIS</text>
  <text x="600" y="101" text-anchor="middle" fill="#4a7a9b" font-size="10" letter-spacing="1">8 SKILLS · 4 DATA SOURCES · PARALLEL SUB-AGENTS</text>

  <!-- ============ DATA SOURCES ROW ============ -->
  <text x="600" y="140" text-anchor="middle" fill="#4a9eff" font-size="11" letter-spacing="4" font-weight="600">DATA SOURCES</text>

  <!-- PubMed -->
  <rect x="130" y="150" width="180" height="44" rx="8" fill="#0d1f35" stroke="#4a9eff" stroke-width="1.2" opacity="0.9"/>
  <circle cx="158" cy="172" r="10" fill="#1a4a7a"/>
  <text x="158" y="176" text-anchor="middle" fill="#7ab8ff" font-size="9" font-weight="700">PM</text>
  <text x="215" y="168" text-anchor="middle" fill="#c8e4ff" font-size="12" font-weight="600">PubMed</text>
  <text x="215" y="182" text-anchor="middle" fill="#4a7a9b" font-size="9">MCP · Full text via PMC</text>

  <!-- bioRxiv -->
  <rect x="340" y="150" width="180" height="44" rx="8" fill="#0d2a1a" stroke="#2ecc71" stroke-width="1.2" opacity="0.9"/>
  <circle cx="368" cy="172" r="10" fill="#1a4a2a"/>
  <text x="368" y="176" text-anchor="middle" fill="#2ecc71" font-size="9" font-weight="700">bR</text>
  <text x="425" y="168" text-anchor="middle" fill="#a8ffcc" font-size="12" font-weight="600">bioRxiv</text>
  <text x="425" y="182" text-anchor="middle" fill="#2a6a3a" font-size="9">MCP · Preprints</text>

  <!-- medRxiv -->
  <rect x="550" y="150" width="180" height="44" rx="8" fill="#2a1a0d" stroke="#f39c12" stroke-width="1.2" opacity="0.9"/>
  <circle cx="578" cy="172" r="10" fill="#4a3010"/>
  <text x="578" y="176" text-anchor="middle" fill="#f39c12" font-size="9" font-weight="700">mR</text>
  <text x="635" y="168" text-anchor="middle" fill="#ffd28a" font-size="12" font-weight="600">medRxiv</text>
  <text x="635" y="182" text-anchor="middle" fill="#7a5020" font-size="9">MCP · Clinical preprints</text>

  <!-- arXiv -->
  <rect x="760" y="150" width="180" height="44" rx="8" fill="#1e0d2a" stroke="#9b59b6" stroke-width="1.2" opacity="0.9"/>
  <circle cx="788" cy="172" r="10" fill="#3a1a4a"/>
  <text x="788" y="176" text-anchor="middle" fill="#c39bd3" font-size="9" font-weight="700">aX</text>
  <text x="845" y="168" text-anchor="middle" fill="#d7b8ff" font-size="12" font-weight="600">arXiv</text>
  <text x="845" y="182" text-anchor="middle" fill="#5a3a7a" font-size="9">WebFetch · q-bio, cs.LG</text>

  <!-- Connecting line from sources to workflow -->
  <line x1="600" y1="194" x2="600" y2="215" stroke="#4a9eff" stroke-width="1" stroke-dasharray="4,3" opacity="0.5"/>

  <!-- ============ WORKFLOW PIPELINE ============ -->
  <text x="600" y="232" text-anchor="middle" fill="#4a9eff" font-size="11" letter-spacing="4" font-weight="600">WORKFLOW PIPELINE</text>

  <!-- 8 step arrows -->
  <line x1="156" y1="274" x2="181" y2="274" stroke="#4a9eff" stroke-width="1.5" marker-end="url(#arrow)" opacity="0.8"/>
  <line x1="299" y1="274" x2="324" y2="274" stroke="#4a9eff" stroke-width="1.5" marker-end="url(#arrow)" opacity="0.8"/>
  <line x1="442" y1="274" x2="467" y2="274" stroke="#4a9eff" stroke-width="1.5" marker-end="url(#arrow)" opacity="0.8"/>
  <line x1="585" y1="274" x2="610" y2="274" stroke="#4a9eff" stroke-width="1.5" marker-end="url(#arrow)" opacity="0.8"/>
  <line x1="728" y1="274" x2="753" y2="274" stroke="#4a9eff" stroke-width="1.5" marker-end="url(#arrow)" opacity="0.8"/>
  <line x1="871" y1="274" x2="896" y2="274" stroke="#4a9eff" stroke-width="1.5" marker-end="url(#arrow)" opacity="0.8"/>
  <line x1="1014" y1="274" x2="1039" y2="274" stroke="#4a9eff" stroke-width="1.5" marker-end="url(#arrow)" opacity="0.8"/>

  <!-- Step 1: lit-search -->
  <rect x="43" y="254" width="113" height="40" rx="7" fill="#1e3a5f" stroke="#4a9eff" stroke-width="1.5"/>
  <text x="99" y="270" text-anchor="middle" fill="#7ab8ff" font-size="8.5" font-weight="700">① /lit-search</text>
  <text x="99" y="285" text-anchor="middle" fill="#4a7a9b" font-size="7.5">Find papers</text>

  <!-- Step 2: lit-trends -->
  <rect x="186" y="254" width="113" height="40" rx="7" fill="#1a4a3a" stroke="#2ecc71" stroke-width="1.5"/>
  <text x="242" y="270" text-anchor="middle" fill="#2ecc71" font-size="8.5" font-weight="700">② /lit-trends</text>
  <text x="242" y="285" text-anchor="middle" fill="#2a6a3a" font-size="7.5">Spot patterns</text>

  <!-- Step 3: lit-download (NEW) -->
  <rect x="329" y="254" width="113" height="40" rx="7" fill="#0d2a2e" stroke="#26c6da" stroke-width="1.5"/>
  <text x="385" y="270" text-anchor="middle" fill="#26c6da" font-size="8.5" font-weight="700">③ /lit-download</text>
  <text x="385" y="285" text-anchor="middle" fill="#1a7080" font-size="7.5">Get PDFs</text>

  <!-- Step 4: lit-deep-dive -->
  <rect x="472" y="254" width="113" height="40" rx="7" fill="#3a1e5f" stroke="#9b59b6" stroke-width="1.5"/>
  <text x="528" y="270" text-anchor="middle" fill="#c39bd3" font-size="8.5" font-weight="700">④ /lit-deep-dive</text>
  <text x="528" y="285" text-anchor="middle" fill="#5a3a7a" font-size="7.5">Drill paper</text>

  <!-- Step 5: lit-reproduce -->
  <rect x="615" y="254" width="113" height="40" rx="7" fill="#3a1e2e" stroke="#e74c3c" stroke-width="1.5"/>
  <text x="671" y="270" text-anchor="middle" fill="#e74c3c" font-size="8.5" font-weight="700">⑤ /lit-reproduce</text>
  <text x="671" y="285" text-anchor="middle" fill="#7a1a2a" font-size="7.5">Reproduce</text>

  <!-- Step 6: lit-compare -->
  <rect x="758" y="254" width="113" height="40" rx="7" fill="#3a2e1e" stroke="#f39c12" stroke-width="1.5"/>
  <text x="814" y="270" text-anchor="middle" fill="#f39c12" font-size="8.5" font-weight="700">⑥ /lit-compare</text>
  <text x="814" y="285" text-anchor="middle" fill="#7a5020" font-size="7.5">Compare</text>

  <!-- Step 7: lit-review -->
  <rect x="901" y="254" width="113" height="40" rx="7" fill="#1e3a3a" stroke="#1abc9c" stroke-width="1.5"/>
  <text x="957" y="270" text-anchor="middle" fill="#1abc9c" font-size="8.5" font-weight="700">⑦ /lit-review</text>
  <text x="957" y="285" text-anchor="middle" fill="#1a5a4a" font-size="7.5">Synthesize</text>

  <!-- Step 8: lit-ppt -->
  <rect x="1044" y="254" width="113" height="40" rx="7" fill="#3a3a1e" stroke="#f1c40f" stroke-width="1.5"/>
  <text x="1100" y="270" text-anchor="middle" fill="#f1c40f" font-size="8.5" font-weight="700">⑧ /lit-ppt</text>
  <text x="1100" y="285" text-anchor="middle" fill="#7a7a10" font-size="7.5">Slides</text>

  <!-- ============ SKILLS GRID ============ -->
  <text x="600" y="322" text-anchor="middle" fill="#4a9eff" font-size="11" letter-spacing="4" font-weight="600">SKILL DETAILS</text>

  <!-- Row 1: Skills 1-4 (lit-search · lit-trends · lit-deep-dive · lit-compare) -->

  <!-- SKILL 1: lit-search -->
  <rect x="40" y="332" width="268" height="150" rx="10" fill="url(#skill1)" stroke="#4a9eff" stroke-width="1.5" opacity="0.95"/>
  <rect x="40" y="332" width="268" height="35" rx="10" fill="#1a4a7a" opacity="0.6"/>
  <rect x="40" y="355" width="268" height="12" fill="#1a4a7a" opacity="0.6"/>
  <text x="56" y="352" fill="#4a9eff" font-size="13" font-weight="700">/lit-search</text>
  <text x="222" y="352" fill="#7ab8ff" font-size="9">/lit-search &lt;topic&gt;</text>
  <text x="56" y="378" fill="#7ab8ff" font-size="9" font-weight="600">SUB-AGENTS (4, parallel):</text>
  <rect x="56" y="383" width="58" height="18" rx="4" fill="#0d2a4a" stroke="#4a9eff" stroke-width="0.8"/>
  <text x="85" y="395" text-anchor="middle" fill="#7ab8ff" font-size="8">PubMed</text>
  <rect x="122" y="383" width="58" height="18" rx="4" fill="#0d2a1a" stroke="#2ecc71" stroke-width="0.8"/>
  <text x="151" y="395" text-anchor="middle" fill="#2ecc71" font-size="8">bioRxiv</text>
  <rect x="188" y="383" width="58" height="18" rx="4" fill="#2a1a0d" stroke="#f39c12" stroke-width="0.8"/>
  <text x="217" y="395" text-anchor="middle" fill="#f39c12" font-size="8">medRxiv</text>
  <rect x="56" y="406" width="58" height="18" rx="4" fill="#1e0d2a" stroke="#9b59b6" stroke-width="0.8"/>
  <text x="85" y="418" text-anchor="middle" fill="#c39bd3" font-size="8">arXiv</text>
  <text x="56" y="438" fill="#7ab8ff" font-size="8.5">Deduplication by DOI + fuzzy title match</text>
  <text x="56" y="452" fill="#7ab8ff" font-size="8.5">Time spans: 1mo / 3mo / 6mo / 1yr</text>
  <text x="56" y="466" fill="#4a7a9b" font-size="8">Output: reports/searches/YYYY-MM-DD-&lt;topic&gt;.md</text>

  <!-- SKILL 2: lit-trends -->
  <rect x="319" y="332" width="268" height="150" rx="10" fill="url(#skill2)" stroke="#2ecc71" stroke-width="1.5" opacity="0.95"/>
  <rect x="319" y="332" width="268" height="35" rx="10" fill="#1a4a2a" opacity="0.6"/>
  <rect x="319" y="355" width="268" height="12" fill="#1a4a2a" opacity="0.6"/>
  <text x="335" y="352" fill="#2ecc71" font-size="13" font-weight="700">/lit-trends</text>
  <text x="495" y="352" fill="#a8ffcc" font-size="9">/lit-trends</text>
  <text x="335" y="378" fill="#a8ffcc" font-size="9" font-weight="600">OUTPUTS (5 plots):</text>
  <text x="335" y="393" fill="#7ab8ff" font-size="8.5">· Publication volume over time</text>
  <text x="335" y="406" fill="#7ab8ff" font-size="8.5">· Source distribution pie chart</text>
  <text x="335" y="419" fill="#7ab8ff" font-size="8.5">· Top author network</text>
  <text x="335" y="432" fill="#7ab8ff" font-size="8.5">· Keyword frequency heatmap</text>
  <text x="335" y="445" fill="#7ab8ff" font-size="8.5">· Focus area coverage</text>
  <text x="335" y="460" fill="#2a6a3a" font-size="8.5">Tags: [NEW] · [ONGOING] · [FADING]</text>
  <text x="335" y="473" fill="#4a7a9b" font-size="8">Output: reports/trends/ + plots/</text>

  <!-- SKILL 3: lit-deep-dive -->
  <rect x="598" y="332" width="268" height="150" rx="10" fill="url(#skill3)" stroke="#9b59b6" stroke-width="1.5" opacity="0.95"/>
  <rect x="598" y="332" width="268" height="35" rx="10" fill="#3a1a4a" opacity="0.6"/>
  <rect x="598" y="355" width="268" height="12" fill="#3a1a4a" opacity="0.6"/>
  <text x="614" y="352" fill="#c39bd3" font-size="13" font-weight="700">/lit-deep-dive</text>
  <text x="786" y="352" fill="#d7b8ff" font-size="9">&lt;DOI | PMID&gt;</text>
  <text x="614" y="378" fill="#d7b8ff" font-size="9" font-weight="600">SUB-AGENTS (3, parallel):</text>
  <rect x="614" y="383" width="68" height="18" rx="4" fill="#1e0d2a" stroke="#9b59b6" stroke-width="0.8"/>
  <text x="648" y="395" text-anchor="middle" fill="#c39bd3" font-size="7.5">Metadata</text>
  <rect x="690" y="383" width="75" height="18" rx="4" fill="#1e0d2a" stroke="#9b59b6" stroke-width="0.8"/>
  <text x="727" y="395" text-anchor="middle" fill="#c39bd3" font-size="7.5">Related Papers</text>
  <rect x="773" y="383" width="68" height="18" rx="4" fill="#1e0d2a" stroke="#9b59b6" stroke-width="0.8"/>
  <text x="807" y="395" text-anchor="middle" fill="#c39bd3" font-size="7.5">Code &amp; Data</text>
  <text x="614" y="420" fill="#7ab8ff" font-size="8.5">· Full text extraction (PMC)</text>
  <text x="614" y="433" fill="#7ab8ff" font-size="8.5">· Citing + related paper mapping</text>
  <text x="614" y="446" fill="#7ab8ff" font-size="8.5">· Code/data availability check</text>
  <text x="614" y="459" fill="#7ab8ff" font-size="8.5">· Reproducibility assessment</text>
  <text x="614" y="473" fill="#4a7a9b" font-size="8">Output: reports/deep-dives/</text>

  <!-- SKILL 4: lit-compare -->
  <rect x="877" y="332" width="283" height="150" rx="10" fill="url(#skill4)" stroke="#e67e22" stroke-width="1.5" opacity="0.95"/>
  <rect x="877" y="332" width="283" height="35" rx="10" fill="#4a3010" opacity="0.6"/>
  <rect x="877" y="355" width="283" height="12" fill="#4a3010" opacity="0.6"/>
  <text x="893" y="352" fill="#f39c12" font-size="13" font-weight="700">/lit-compare</text>
  <text x="1081" y="352" fill="#ffd28a" font-size="9">&lt;A&gt; vs &lt;B&gt;</text>
  <text x="893" y="378" fill="#ffd28a" font-size="9" font-weight="600">1 SUB-AGENT PER METHOD (parallel):</text>
  <text x="893" y="396" fill="#7ab8ff" font-size="8.5">· Benchmark performance tables</text>
  <text x="893" y="409" fill="#7ab8ff" font-size="8.5">· Architecture comparison</text>
  <text x="893" y="422" fill="#7ab8ff" font-size="8.5">· Feature matrix (datasets, metrics)</text>
  <text x="893" y="435" fill="#7ab8ff" font-size="8.5">· Use-case recommendations</text>
  <text x="893" y="448" fill="#7ab8ff" font-size="8.5">· Strength / weakness analysis</text>
  <text x="893" y="473" fill="#4a7a9b" font-size="8">Output: reports/comparisons/</text>

  <!-- Row 2: Skills 5-8 (lit-download · lit-reproduce · lit-review · lit-ppt) -->

  <!-- SKILL 5: lit-download (NEW) -->
  <rect x="40" y="500" width="268" height="150" rx="10" fill="url(#skill8)" stroke="#26c6da" stroke-width="1.5" opacity="0.95"/>
  <rect x="40" y="500" width="268" height="35" rx="10" fill="#0d2e3a" opacity="0.6"/>
  <rect x="40" y="523" width="268" height="12" fill="#0d2e3a" opacity="0.6"/>
  <text x="56" y="520" fill="#26c6da" font-size="13" font-weight="700">/lit-download</text>
  <text x="213" y="520" fill="#a0e8f0" font-size="9">[latest | DOIs]</text>
  <text x="56" y="546" fill="#a0e8f0" font-size="9" font-weight="600">DOWNLOAD ROUTES (in order):</text>
  <rect x="56" y="551" width="54" height="18" rx="4" fill="#082028" stroke="#26c6da" stroke-width="0.8"/>
  <text x="83" y="563" text-anchor="middle" fill="#26c6da" font-size="7.5">PMC</text>
  <rect x="118" y="551" width="58" height="18" rx="4" fill="#082028" stroke="#2ecc71" stroke-width="0.8"/>
  <text x="147" y="563" text-anchor="middle" fill="#2ecc71" font-size="7.5">bioRxiv</text>
  <rect x="184" y="551" width="52" height="18" rx="4" fill="#082028" stroke="#9b59b6" stroke-width="0.8"/>
  <text x="210" y="563" text-anchor="middle" fill="#c39bd3" font-size="7.5">arXiv</text>
  <rect x="56" y="574" width="72" height="18" rx="4" fill="#082028" stroke="#f39c12" stroke-width="0.8"/>
  <text x="92" y="586" text-anchor="middle" fill="#f39c12" font-size="7.5">Unpaywall</text>
  <rect x="136" y="574" width="68" height="18" rx="4" fill="#082028" stroke="#e74c3c" stroke-width="0.8"/>
  <text x="170" y="586" text-anchor="middle" fill="#ff8888" font-size="7.5">Publisher</text>
  <text x="56" y="610" fill="#7ab8ff" font-size="8.5">· OA only · PDF + manifest.md saved</text>
  <text x="56" y="623" fill="#7ab8ff" font-size="8.5">· Confirms list before downloading</text>
  <text x="56" y="641" fill="#4a7a9b" font-size="8">Output: reports/downloads/YYYY-MM-DD-&lt;topic&gt;/</text>

  <!-- SKILL 6: lit-reproduce -->
  <rect x="319" y="500" width="268" height="150" rx="10" fill="url(#skill5)" stroke="#e74c3c" stroke-width="1.5" opacity="0.95"/>
  <rect x="319" y="500" width="268" height="35" rx="10" fill="#3a0d1a" opacity="0.6"/>
  <rect x="319" y="523" width="268" height="12" fill="#3a0d1a" opacity="0.6"/>
  <text x="335" y="520" fill="#e74c3c" font-size="13" font-weight="700">/lit-reproduce</text>
  <text x="490" y="520" fill="#ff8888" font-size="9">&lt;ID&gt; — &lt;fig&gt;</text>
  <text x="335" y="546" fill="#ff8888" font-size="9" font-weight="600">SUB-AGENTS (3, parallel):</text>
  <rect x="335" y="551" width="78" height="18" rx="4" fill="#210d19" stroke="#e74c3c" stroke-width="0.8"/>
  <text x="374" y="563" text-anchor="middle" fill="#ff8888" font-size="7.5">Methods Extract</text>
  <rect x="421" y="551" width="78" height="18" rx="4" fill="#210d19" stroke="#e74c3c" stroke-width="0.8"/>
  <text x="460" y="563" text-anchor="middle" fill="#ff8888" font-size="7.5">Resource Disc.</text>
  <rect x="507" y="551" width="72" height="18" rx="4" fill="#210d19" stroke="#e74c3c" stroke-width="0.8"/>
  <text x="543" y="563" text-anchor="middle" fill="#ff8888" font-size="7.5">Difficulty</text>
  <text x="335" y="588" fill="#7ab8ff" font-size="8.5">· Analytical pipeline extraction</text>
  <text x="335" y="601" fill="#7ab8ff" font-size="8.5">· Learning resources per step</text>
  <text x="335" y="614" fill="#7ab8ff" font-size="8.5">· Interactive teaching (hardest parts)</text>
  <text x="335" y="627" fill="#7ab8ff" font-size="8.5">· Adapted to user knowledge level</text>
  <text x="335" y="641" fill="#4a7a9b" font-size="8">Output: reports/reproductions/</text>

  <!-- SKILL 7: lit-review -->
  <rect x="598" y="500" width="268" height="150" rx="10" fill="url(#skill6)" stroke="#1abc9c" stroke-width="1.5" opacity="0.95"/>
  <rect x="598" y="500" width="268" height="35" rx="10" fill="#0d3a2a" opacity="0.6"/>
  <rect x="598" y="523" width="268" height="12" fill="#0d3a2a" opacity="0.6"/>
  <text x="614" y="520" fill="#1abc9c" font-size="13" font-weight="700">/lit-review</text>
  <text x="775" y="520" fill="#a8ffd4" font-size="9">&lt;topic&gt;</text>
  <text x="614" y="546" fill="#a8ffd4" font-size="9" font-weight="600">SUB-AGENTS (3, parallel):</text>
  <rect x="614" y="551" width="68" height="18" rx="4" fill="#0d2121" stroke="#1abc9c" stroke-width="0.8"/>
  <text x="648" y="563" text-anchor="middle" fill="#1abc9c" font-size="7.5">Background</text>
  <rect x="690" y="551" width="88" height="18" rx="4" fill="#0d2121" stroke="#1abc9c" stroke-width="0.8"/>
  <text x="734" y="563" text-anchor="middle" fill="#1abc9c" font-size="7.5">Methods Land.</text>
  <rect x="786" y="551" width="68" height="18" rx="4" fill="#0d2121" stroke="#1abc9c" stroke-width="0.8"/>
  <text x="820" y="563" text-anchor="middle" fill="#1abc9c" font-size="7.5">Gaps &amp; Future</text>
  <text x="614" y="590" fill="#7ab8ff" font-size="8.5">· Narrative synthesis from all reports</text>
  <text x="614" y="603" fill="#7ab8ff" font-size="8.5">· Grant intro / review paper quality</text>
  <text x="614" y="616" fill="#7ab8ff" font-size="8.5">· Focus: disease, targets, drug disc.</text>
  <text x="614" y="641" fill="#4a7a9b" font-size="8">Output: reports/reviews/</text>

  <!-- SKILL 8: lit-ppt -->
  <rect x="877" y="500" width="283" height="150" rx="10" fill="url(#skill7)" stroke="#f1c40f" stroke-width="1.5" opacity="0.95"/>
  <rect x="877" y="500" width="283" height="35" rx="10" fill="#3a3a10" opacity="0.6"/>
  <rect x="877" y="523" width="283" height="12" fill="#3a3a3a" opacity="0.4"/>
  <text x="893" y="520" fill="#f1c40f" font-size="13" font-weight="700">/lit-ppt</text>
  <text x="1010" y="520" fill="#fff799" font-size="9">[search | trends | review]</text>
  <text x="893" y="546" fill="#fff799" font-size="9" font-weight="600">3 PRESENTATION STYLES:</text>
  <rect x="893" y="551" width="74" height="18" rx="4" fill="#21210d" stroke="#f1c40f" stroke-width="0.8"/>
  <text x="930" y="563" text-anchor="middle" fill="#f1c40f" font-size="7.5">Lab Meeting</text>
  <text x="930" y="574" text-anchor="middle" fill="#7a7a10" font-size="6.5">15-20 slides</text>
  <rect x="975" y="551" width="74" height="18" rx="4" fill="#21210d" stroke="#f1c40f" stroke-width="0.8"/>
  <text x="1012" y="563" text-anchor="middle" fill="#f1c40f" font-size="7.5">Journal Club</text>
  <text x="1012" y="574" text-anchor="middle" fill="#7a7a10" font-size="6.5">10-15 slides</text>
  <rect x="1057" y="551" width="74" height="18" rx="4" fill="#21210d" stroke="#f1c40f" stroke-width="0.8"/>
  <text x="1094" y="563" text-anchor="middle" fill="#f1c40f" font-size="7.5">Quick Update</text>
  <text x="1094" y="574" text-anchor="middle" fill="#7a7a10" font-size="6.5">5-8 slides</text>
  <text x="893" y="600" fill="#7ab8ff" font-size="8.5">· PPTX via python-pptx</text>
  <text x="893" y="613" fill="#7ab8ff" font-size="8.5">· White backgrounds, no text truncation</text>
  <text x="893" y="626" fill="#7ab8ff" font-size="8.5">· Reads from latest report automatically</text>
  <text x="893" y="641" fill="#4a7a9b" font-size="8">Output: reports/presentations/.pptx</text>

  <!-- Compact output dirs strip -->
  <text x="600" y="660" text-anchor="middle" fill="#2a4a5a" font-size="7.5" letter-spacing="0.5">OUTPUT DIRS: searches/ · trends/ · downloads/ · deep-dives/ · comparisons/ · reproductions/ · reviews/ · presentations/</text>

  <!-- ============ BOTTOM: Architecture + User Context ============ -->

  <!-- Architecture note -->
  <rect x="40" y="666" width="560" height="90" rx="10" fill="#0d1a2a" stroke="#4a9eff" stroke-width="1" opacity="0.85"/>
  <text x="320" y="686" text-anchor="middle" fill="#4a9eff" font-size="10" font-weight="700" letter-spacing="3">ARCHITECTURE</text>
  <text x="56" y="704" fill="#7ab8ff" font-size="8.5">Lead agent dispatches specialized sub-agents in parallel via Agent tool</text>
  <text x="56" y="718" fill="#7ab8ff" font-size="8.5">Sub-agents return structured results · Lead agent synthesizes + saves report</text>
  <text x="56" y="732" fill="#4a9eff" font-size="8.5">Deduplication: DOI match → fuzzy title (≥90%) → prefer published over preprint</text>
  <text x="56" y="746" fill="#2ecc71" font-size="8.5">Trajectory tags: [NEW] emerging topics · [ONGOING] sustained · [FADING] declining</text>

  <!-- User Context box -->
  <rect x="618" y="666" width="542" height="90" rx="10" fill="#0d1a0d" stroke="#2ecc71" stroke-width="1" opacity="0.85"/>
  <text x="889" y="686" text-anchor="middle" fill="#2ecc71" font-size="10" font-weight="700" letter-spacing="3">USER CONTEXT</text>
  <text x="634" y="704" fill="#a8ffd4" font-size="8.5">Biomedical researcher · Disease mechanisms · Therapeutic targets</text>
  <text x="634" y="718" fill="#a8ffd4" font-size="8.5">Drug discovery · Translational research · Spatial transcriptomics</text>
  <text x="634" y="732" fill="#a8ffd4" font-size="8.5">Multi-omics · Deep learning in sequencing · Computational biology</text>
  <text x="634" y="746" fill="#2a6a3a" font-size="8.5">Python deps: matplotlib · seaborn · python-pptx  (installed on demand)</text>

  <!-- ============ FOOTER ============ -->
  <rect x="0" y="775" width="1200" height="125" fill="#080c10" opacity="0.9"/>
  <line x1="0" y1="775" x2="1200" y2="775" stroke="#4a9eff" stroke-width="0.5" opacity="0.4"/>

  <!-- Config.json note -->
  <text x="600" y="800" text-anchor="middle" fill="#4a7a9b" font-size="9" letter-spacing="2">CONFIG: config.json</text>
  <rect x="195" y="810" width="810" height="20" rx="5" fill="#0d1a2a" stroke="#1e3a5f" stroke-width="0.8"/>
  <text x="600" y="823" text-anchor="middle" fill="#4a7a9b" font-size="8">tracked_topics  ·  focus_areas  ·  time_span  ·  result_limits  ·  category_filters  ·  detailed_summary_limit</text>

  <!-- Report naming convention -->
  <text x="600" y="850" text-anchor="middle" fill="#2a4a2a" font-size="9">NAMING CONVENTION:  YYYY-MM-DD-&lt;sanitized-topic&gt;.md  —  lowercase  ·  hyphens  ·  no special chars</text>

  <!-- Footer brand line -->
  <line x1="350" y1="862" x2="850" y2="862" stroke="#1e3a5f" stroke-width="0.5"/>
  <text x="600" y="878" text-anchor="middle" fill="#1e3a5f" font-size="9" letter-spacing="4">MULTI-AGENT LITERATURE SEARCH · BIOMEDICAL RESEARCH INTELLIGENCE</text>
  <text x="600" y="892" text-anchor="middle" fill="#1a2a3a" font-size="8">Claude Code · 2026</text>

  <!-- Decorative corner accents -->
  <path d="M 40 20 L 20 20 L 20 40" fill="none" stroke="#4a9eff" stroke-width="2" opacity="0.5"/>
  <path d="M 1160 20 L 1180 20 L 1180 40" fill="none" stroke="#4a9eff" stroke-width="2" opacity="0.5"/>
  <path d="M 40 880 L 20 880 L 20 860" fill="none" stroke="#4a9eff" stroke-width="2" opacity="0.5"/>
  <path d="M 1160 880 L 1180 880 L 1180 860" fill="none" stroke="#4a9eff" stroke-width="2" opacity="0.5"/>
</svg>
